  0
SECTION
  2
HEADER
  9
$ACADVER
  1
AC1009
  9
$EXTMIN
 10
0.0
 20
0.0
 30
0.0
  9
$EXTMAX
 10
1000.0
 20
1000.0
 30
0.0
  9
$FILLMODE
 70
 0
  9
$SPLFRAME
 70
 1
  0
ENDSEC
  0
SECTION
  2
TABLES
  0
TABLE
  2
LAYER
 70
1
  0
LAYER
  2
0
 70
     0
 62
     7
  6
CONTINUOUS
  0
ENDTAB
  0
ENDSEC
  0
SECTION
  2
ENTITIES
  0
LINE
  8
0
 62
     0
 10
0.0950846
 20
129.624
 30
0.0
 11
165.416
 21
129.624
 31
0.0
  0
LINE
  8
0
 62
     0
 10
165.416
 20
129.624
 30
0.0
 11
165.416
 21
0.100597
 31
0.0
  0
LINE
  8
0
 62
     0
 10
165.416
 20
0.100597
 30
0.0
 11
0.0950846
 21
0.100597
 31
0.0
  0
LINE
  8
0
 62
     0
 10
0.0950846
 20
0.100597
 30
0.0
 11
0.0950846
 21
129.624
 31
0.0
  0
LINE
  8
0
 62
     0
 10
141.181
 20
22.1768
 30
0.0
 11
140.316
 21
22.6756
 31
0.0
  0
LINE
  8
0
 62
     0
 10
140.316
 20
22.6756
 30
0.0
 11
133.315
 21
10.5517
 31
0.0
  0
LINE
  8
0
 62
     0
 10
133.315
 20
10.5517
 30
0.0
 11
134.182
 21
10.0528
 31
0.0
  0
LINE
  8
0
 62
     0
 10
134.182
 20
10.0528
 30
0.0
 11
133.781
 21
9.35965
 31
0.0
  0
LINE
  8
0
 62
     0
 10
133.781
 20
9.35965
 30
0.0
 11
136.466
 21
7.80934
 31
0.0
  0
LINE
  8
0
 62
     0
 10
136.466
 20
7.80934
 30
0.0
 11
136.865
 21
8.50251
 31
0.0
  0
LINE
  8
0
 62
     0
 10
136.865
 20
8.50251
 30
0.0
 11
141.888
 21
5.6031
 31
0.0
  0
LINE
  8
0
 62
     0
 10
141.888
 20
5.6031
 30
0.0
 11
141.489
 21
4.90859
 31
0.0
  0
LINE
  8
0
 62
     0
 10
141.489
 20
4.90859
 30
0.0
 11
144.173
 21
3.35966
 31
0.0
  0
LINE
  8
0
 62
     0
 10
144.173
 20
3.35966
 30
0.0
 11
144.574
 21
4.05144
 31
0.0
  0
LINE
  8
0
 62
     0
 10
144.574
 20
4.05144
 30
0.0
 11
145.44
 21
3.55258
 31
0.0
  0
LINE
  8
0
 62
     0
 10
145.44
 20
3.55258
 30
0.0
 11
152.44
 21
15.6766
 31
0.0
  0
LINE
  8
0
 62
     0
 10
152.44
 20
15.6766
 30
0.0
 11
151.573
 21
16.1768
 31
0.0
  0
LINE
  8
0
 62
     0
 10
151.573
 20
16.1768
 30
0.0
 11
151.974
 21
16.8686
 31
0.0
  0
LINE
  8
0
 62
     0
 10
151.974
 20
16.8686
 30
0.0
 11
149.288
 21
18.4188
 31
0.0
  0
LINE
  8
0
 62
     0
 10
149.288
 20
18.4188
 30
0.0
 11
148.889
 21
17.7257
 31
0.0
  0
LINE
  8
0
 62
     0
 10
148.889
 20
17.7257
 30
0.0
 11
143.866
 21
20.6265
 31
0.0
  0
LINE
  8
0
 62
     0
 10
143.866
 20
20.6265
 30
0.0
 11
144.265
 21
21.3196
 31
0.0
  0
LINE
  8
0
 62
     0
 10
144.265
 20
21.3196
 30
0.0
 11
141.582
 21
22.8685
 31
0.0
  0
LINE
  8
0
 62
     0
 10
141.582
 20
22.8685
 30
0.0
 11
141.181
 21
22.1768
 31
0.0
  0
LINE
  8
0
 62
     0
 10
133.128
 20
45.3884
 30
0.0
 11
132.332
 21
45.8488
 31
0.0
  0
LINE
  8
0
 62
     0
 10
132.332
 20
45.8488
 30
0.0
 11
130.682
 21
42.9906
 31
0.0
  0
LINE
  8
0
 62
     0
 10
130.682
 20
42.9906
 30
0.0
 11
131.477
 21
42.5305
 31
0.0
  0
LINE
  8
0
 62
     0
 10
131.477
 20
42.5305
 30
0.0
 11
130.616
 21
41.0365
 31
0.0
  0
LINE
  8
0
 62
     0
 10
130.616
 20
41.0365
 30
0.0
 11
133.413
 21
39.4215
 31
0.0
  0
LINE
  8
0
 62
     0
 10
133.413
 20
39.4215
 30
0.0
 11
132.65
 21
38.1
 31
0.0
  0
LINE
  8
0
 62
     0
 10
132.65
 20
38.1
 30
0.0
 11
132.13
 21
38.4006
 31
0.0
  0
LINE
  8
0
 62
     0
 10
132.13
 20
38.4006
 30
0.0
 11
132.53
 21
39.0934
 31
0.0
  0
LINE
  8
0
 62
     0
 10
132.53
 20
39.0934
 30
0.0
 11
129.846
 21
40.6425
 31
0.0
  0
LINE
  8
0
 62
     0
 10
129.846
 20
40.6425
 30
0.0
 11
129.446
 21
39.9507
 31
0.0
  0
LINE
  8
0
 62
     0
 10
129.446
 20
39.9507
 30
0.0
 11
128.579
 21
40.4495
 31
0.0
  0
LINE
  8
0
 62
     0
 10
128.579
 20
40.4495
 30
0.0
 11
121.58
 21
28.3256
 31
0.0
  0
LINE
  8
0
 62
     0
 10
121.58
 20
28.3256
 30
0.0
 11
122.446
 21
27.8267
 31
0.0
  0
LINE
  8
0
 62
     0
 10
122.446
 20
27.8267
 30
0.0
 11
122.046
 21
27.1336
 31
0.0
  0
LINE
  8
0
 62
     0
 10
122.046
 20
27.1336
 30
0.0
 11
124.73
 21
25.5833
 31
0.0
  0
LINE
  8
0
 62
     0
 10
124.73
 20
25.5833
 30
0.0
 11
125.131
 21
26.2764
 31
0.0
  0
LINE
  8
0
 62
     0
 10
125.131
 20
26.2764
 30
0.0
 11
125.651
 21
25.976
 31
0.0
  0
LINE
  8
0
 62
     0
 10
125.651
 20
25.976
 30
0.0
 11
124.888
 21
24.6545
 31
0.0
  0
LINE
  8
0
 62
     0
 10
124.888
 20
24.6545
 30
0.0
 11
122.091
 21
26.2695
 31
0.0
  0
LINE
  8
0
 62
     0
 10
122.091
 20
26.2695
 30
0.0
 11
121.227
 21
24.7758
 31
0.0
  0
LINE
  8
0
 62
     0
 10
121.227
 20
24.7758
 30
0.0
 11
120.432
 21
25.236
 31
0.0
  0
LINE
  8
0
 62
     0
 10
120.432
 20
25.236
 30
0.0
 11
118.781
 21
22.378
 31
0.0
  0
LINE
  8
0
 62
     0
 10
118.781
 20
22.378
 30
0.0
 11
119.578
 21
21.9177
 31
0.0
  0
LINE
  8
0
 62
     0
 10
119.578
 20
21.9177
 30
0.0
 11
118.715
 21
20.4253
 31
0.0
  0
LINE
  8
0
 62
     0
 10
118.715
 20
20.4253
 30
0.0
 11
121.513
 21
18.8102
 31
0.0
  0
LINE
  8
0
 62
     0
 10
121.513
 20
18.8102
 30
0.0
 11
121.101
 21
18.095
 31
0.0
  0
LINE
  8
0
 62
     0
 10
121.101
 20
18.095
 30
0.0
 11
123.526
 21
16.6949
 31
0.0
  0
LINE
  8
0
 62
     0
 10
123.526
 20
16.6949
 30
0.0
 11
123.936
 21
17.4101
 31
0.0
  0
LINE
  8
0
 62
     0
 10
123.936
 20
17.4101
 30
0.0
 11
129.367
 21
14.2751
 31
0.0
  0
LINE
  8
0
 62
     0
 10
129.367
 20
14.2751
 30
0.0
 11
130.23
 21
15.7675
 31
0.0
  0
LINE
  8
0
 62
     0
 10
130.23
 20
15.7675
 30
0.0
 11
131.079
 21
15.2783
 31
0.0
  0
LINE
  8
0
 62
     0
 10
131.079
 20
15.2783
 30
0.0
 11
132.728
 21
18.1364
 31
0.0
  0
LINE
  8
0
 62
     0
 10
132.728
 20
18.1364
 30
0.0
 11
131.881
 21
18.6256
 31
0.0
  0
LINE
  8
0
 62
     0
 10
131.881
 20
18.6256
 30
0.0
 11
132.742
 21
20.1208
 31
0.0
  0
LINE
  8
0
 62
     0
 10
132.742
 20
20.1208
 30
0.0
 11
128.871
 21
22.3545
 31
0.0
  0
LINE
  8
0
 62
     0
 10
128.871
 20
22.3545
 30
0.0
 11
129.635
 21
23.6761
 31
0.0
  0
LINE
  8
0
 62
     0
 10
129.635
 20
23.6761
 30
0.0
 11
130.154
 21
23.3757
 31
0.0
  0
LINE
  8
0
 62
     0
 10
130.154
 20
23.3757
 30
0.0
 11
129.753
 21
22.6825
 31
0.0
  0
LINE
  8
0
 62
     0
 10
129.753
 20
22.6825
 30
0.0
 11
132.439
 21
21.1336
 31
0.0
  0
LINE
  8
0
 62
     0
 10
132.439
 20
21.1336
 30
0.0
 11
132.839
 21
21.8267
 31
0.0
  0
LINE
  8
0
 62
     0
 10
132.839
 20
21.8267
 30
0.0
 11
133.704
 21
21.3265
 31
0.0
  0
LINE
  8
0
 62
     0
 10
133.704
 20
21.3265
 30
0.0
 11
140.705
 21
33.4505
 31
0.0
  0
LINE
  8
0
 62
     0
 10
140.705
 20
33.4505
 30
0.0
 11
139.839
 21
33.9507
 31
0.0
  0
LINE
  8
0
 62
     0
 10
139.839
 20
33.9507
 30
0.0
 11
140.239
 21
34.6425
 31
0.0
  0
LINE
  8
0
 62
     0
 10
140.239
 20
34.6425
 30
0.0
 11
137.554
 21
36.1929
 31
0.0
  0
LINE
  8
0
 62
     0
 10
137.554
 20
36.1929
 30
0.0
 11
137.153
 21
35.4997
 31
0.0
  0
LINE
  8
0
 62
     0
 10
137.153
 20
35.4997
 30
0.0
 11
136.634
 21
35.7999
 31
0.0
  0
LINE
  8
0
 62
     0
 10
136.634
 20
35.7999
 30
0.0
 11
137.397
 21
37.1217
 31
0.0
  0
LINE
  8
0
 62
     0
 10
137.397
 20
37.1217
 30
0.0
 11
141.268
 21
34.8864
 31
0.0
  0
LINE
  8
0
 62
     0
 10
141.268
 20
34.8864
 30
0.0
 11
142.131
 21
36.3802
 31
0.0
  0
LINE
  8
0
 62
     0
 10
142.131
 20
36.3802
 30
0.0
 11
142.978
 21
35.8895
 31
0.0
  0
LINE
  8
0
 62
     0
 10
142.978
 20
35.8895
 30
0.0
 11
144.629
 21
38.7477
 31
0.0
  0
LINE
  8
0
 62
     0
 10
144.629
 20
38.7477
 30
0.0
 11
143.78
 21
39.2384
 31
0.0
  0
LINE
  8
0
 62
     0
 10
143.78
 20
39.2384
 30
0.0
 11
144.643
 21
40.7321
 31
0.0
  0
LINE
  8
0
 62
     0
 10
144.643
 20
40.7321
 30
0.0
 11
139.212
 21
43.8672
 31
0.0
  0
LINE
  8
0
 62
     0
 10
139.212
 20
43.8672
 30
0.0
 11
139.626
 21
44.5809
 31
0.0
  0
LINE
  8
0
 62
     0
 10
139.626
 20
44.5809
 30
0.0
 11
137.2
 21
45.9811
 31
0.0
  0
LINE
  8
0
 62
     0
 10
137.2
 20
45.9811
 30
0.0
 11
136.788
 21
45.267
 31
0.0
  0
LINE
  8
0
 62
     0
 10
136.788
 20
45.267
 30
0.0
 11
133.991
 21
46.8824
 31
0.0
  0
LINE
  8
0
 62
     0
 10
133.991
 20
46.8824
 30
0.0
 11
133.128
 21
45.3884
 31
0.0
  0
LINE
  8
0
 62
     0
 10
150.706
 20
38.6747
 30
0.0
 11
149.841
 21
39.1735
 31
0.0
  0
LINE
  8
0
 62
     0
 10
149.841
 20
39.1735
 30
0.0
 11
142.84
 21
27.0495
 31
0.0
  0
LINE
  8
0
 62
     0
 10
142.84
 20
27.0495
 30
0.0
 11
143.707
 21
26.5507
 31
0.0
  0
LINE
  8
0
 62
     0
 10
143.707
 20
26.5507
 30
0.0
 11
143.306
 21
25.8575
 31
0.0
  0
LINE
  8
0
 62
     0
 10
143.306
 20
25.8575
 30
0.0
 11
145.991
 21
24.3072
 31
0.0
  0
LINE
  8
0
 62
     0
 10
145.991
 20
24.3072
 30
0.0
 11
146.39
 21
25.0004
 31
0.0
  0
LINE
  8
0
 62
     0
 10
146.39
 20
25.0004
 30
0.0
 11
151.413
 21
22.0996
 31
0.0
  0
LINE
  8
0
 62
     0
 10
151.413
 20
22.0996
 30
0.0
 11
151.014
 21
21.4064
 31
0.0
  0
LINE
  8
0
 62
     0
 10
151.014
 20
21.4064
 30
0.0
 11
153.698
 21
19.8575
 31
0.0
  0
LINE
  8
0
 62
     0
 10
153.698
 20
19.8575
 30
0.0
 11
154.099
 21
20.5507
 31
0.0
  0
LINE
  8
0
 62
     0
 10
154.099
 20
20.5507
 30
0.0
 11
154.965
 21
20.0504
 31
0.0
  0
LINE
  8
0
 62
     0
 10
154.965
 20
20.0504
 30
0.0
 11
161.965
 21
32.1744
 31
0.0
  0
LINE
  8
0
 62
     0
 10
161.965
 20
32.1744
 30
0.0
 11
161.098
 21
32.6747
 31
0.0
  0
LINE
  8
0
 62
     0
 10
161.098
 20
32.6747
 30
0.0
 11
161.499
 21
33.3664
 31
0.0
  0
LINE
  8
0
 62
     0
 10
161.499
 20
33.3664
 30
0.0
 11
158.813
 21
34.9167
 31
0.0
  0
LINE
  8
0
 62
     0
 10
158.813
 20
34.9167
 30
0.0
 11
158.414
 21
34.2236
 31
0.0
  0
LINE
  8
0
 62
     0
 10
158.414
 20
34.2236
 30
0.0
 11
153.391
 21
37.1242
 31
0.0
  0
LINE
  8
0
 62
     0
 10
153.391
 20
37.1242
 30
0.0
 11
153.79
 21
37.8174
 31
0.0
  0
LINE
  8
0
 62
     0
 10
153.79
 20
37.8174
 30
0.0
 11
151.107
 21
39.3679
 31
0.0
  0
LINE
  8
0
 62
     0
 10
151.107
 20
39.3679
 30
0.0
 11
150.706
 21
38.6747
 31
0.0
  0
LINE
  8
0
 62
     0
 10
97.8697
 20
46.1366
 30
0.0
 11
97.8697
 21
45.1376
 31
0.0
  0
LINE
  8
0
 62
     0
 10
97.8697
 20
45.1376
 30
0.0
 11
97.0703
 21
45.1376
 31
0.0
  0
LINE
  8
0
 62
     0
 10
97.0703
 20
45.1376
 30
0.0
 11
97.0703
 21
42.037
 31
0.0
  0
LINE
  8
0
 62
     0
 10
97.0703
 20
42.037
 30
0.0
 11
97.8697
 21
42.037
 31
0.0
  0
LINE
  8
0
 62
     0
 10
97.8697
 20
42.037
 30
0.0
 11
97.8697
 21
36.237
 31
0.0
  0
LINE
  8
0
 62
     0
 10
97.8697
 20
36.237
 30
0.0
 11
97.0703
 21
36.237
 31
0.0
  0
LINE
  8
0
 62
     0
 10
97.0703
 20
36.237
 30
0.0
 11
97.0703
 21
33.1377
 31
0.0
  0
LINE
  8
0
 62
     0
 10
97.0703
 20
33.1377
 30
0.0
 11
97.8697
 21
33.1377
 31
0.0
  0
LINE
  8
0
 62
     0
 10
97.8697
 20
33.1377
 30
0.0
 11
97.8697
 21
32.1372
 31
0.0
  0
LINE
  8
0
 62
     0
 10
97.8697
 20
32.1372
 30
0.0
 11
111.869
 21
32.1372
 31
0.0
  0
LINE
  8
0
 62
     0
 10
111.869
 20
32.1372
 30
0.0
 11
111.869
 21
33.1377
 31
0.0
  0
LINE
  8
0
 62
     0
 10
111.869
 20
33.1377
 30
0.0
 11
112.67
 21
33.1377
 31
0.0
  0
LINE
  8
0
 62
     0
 10
112.67
 20
33.1377
 30
0.0
 11
112.67
 21
36.237
 31
0.0
  0
LINE
  8
0
 62
     0
 10
112.67
 20
36.237
 30
0.0
 11
111.869
 21
36.237
 31
0.0
  0
LINE
  8
0
 62
     0
 10
111.869
 20
36.237
 30
0.0
 11
111.869
 21
42.037
 31
0.0
  0
LINE
  8
0
 62
     0
 10
111.869
 20
42.037
 30
0.0
 11
112.67
 21
42.037
 31
0.0
  0
LINE
  8
0
 62
     0
 10
112.67
 20
42.037
 30
0.0
 11
112.67
 21
45.1376
 31
0.0
  0
LINE
  8
0
 62
     0
 10
112.67
 20
45.1376
 30
0.0
 11
111.869
 21
45.1376
 31
0.0
  0
LINE
  8
0
 62
     0
 10
111.869
 20
45.1376
 30
0.0
 11
111.869
 21
46.1366
 31
0.0
  0
LINE
  8
0
 62
     0
 10
111.869
 20
46.1366
 30
0.0
 11
97.8697
 21
46.1366
 31
0.0
  0
LINE
  8
0
 62
     0
 10
7.38216
 20
55.6616
 30
0.0
 11
7.38216
 21
54.6626
 31
0.0
  0
LINE
  8
0
 62
     0
 10
7.38216
 20
54.6626
 30
0.0
 11
6.58153
 21
54.6626
 31
0.0
  0
LINE
  8
0
 62
     0
 10
6.58153
 20
54.6626
 30
0.0
 11
6.58153
 21
51.562
 31
0.0
  0
LINE
  8
0
 62
     0
 10
6.58153
 20
51.562
 30
0.0
 11
7.38216
 21
51.562
 31
0.0
  0
LINE
  8
0
 62
     0
 10
7.38216
 20
51.562
 30
0.0
 11
7.38216
 21
45.762
 31
0.0
  0
LINE
  8
0
 62
     0
 10
7.38216
 20
45.762
 30
0.0
 11
6.58153
 21
45.762
 31
0.0
  0
LINE
  8
0
 62
     0
 10
6.58153
 20
45.762
 30
0.0
 11
6.58153
 21
42.6628
 31
0.0
  0
LINE
  8
0
 62
     0
 10
6.58153
 20
42.6628
 30
0.0
 11
7.38216
 21
42.6628
 31
0.0
  0
LINE
  8
0
 62
     0
 10
7.38216
 20
42.6628
 30
0.0
 11
7.38216
 21
41.6624
 31
0.0
  0
LINE
  8
0
 62
     0
 10
7.38216
 20
41.6624
 30
0.0
 11
21.3817
 21
41.6624
 31
0.0
  0
LINE
  8
0
 62
     0
 10
21.3817
 20
41.6624
 30
0.0
 11
21.3817
 21
42.6628
 31
0.0
  0
LINE
  8
0
 62
     0
 10
21.3817
 20
42.6628
 30
0.0
 11
22.1823
 21
42.6628
 31
0.0
  0
LINE
  8
0
 62
     0
 10
22.1823
 20
42.6628
 30
0.0
 11
22.1823
 21
45.762
 31
0.0
  0
LINE
  8
0
 62
     0
 10
22.1823
 20
45.762
 30
0.0
 11
21.3817
 21
45.762
 31
0.0
  0
LINE
  8
0
 62
     0
 10
21.3817
 20
45.762
 30
0.0
 11
21.3817
 21
51.562
 31
0.0
  0
LINE
  8
0
 62
     0
 10
21.3817
 20
51.562
 30
0.0
 11
22.1823
 21
51.562
 31
0.0
  0
LINE
  8
0
 62
     0
 10
22.1823
 20
51.562
 30
0.0
 11
22.1823
 21
54.6626
 31
0.0
  0
LINE
  8
0
 62
     0
 10
22.1823
 20
54.6626
 30
0.0
 11
21.3817
 21
54.6626
 31
0.0
  0
LINE
  8
0
 62
     0
 10
21.3817
 20
54.6626
 30
0.0
 11
21.3817
 21
55.6616
 31
0.0
  0
LINE
  8
0
 62
     0
 10
21.3817
 20
55.6616
 30
0.0
 11
7.38216
 21
55.6616
 31
0.0
  0
LINE
  8
0
 62
     0
 10
31.1947
 20
55.6616
 30
0.0
 11
31.1947
 21
54.6626
 31
0.0
  0
LINE
  8
0
 62
     0
 10
31.1947
 20
54.6626
 30
0.0
 11
30.3954
 21
54.6626
 31
0.0
  0
LINE
  8
0
 62
     0
 10
30.3954
 20
54.6626
 30
0.0
 11
30.3954
 21
51.562
 31
0.0
  0
LINE
  8
0
 62
     0
 10
30.3954
 20
51.562
 30
0.0
 11
31.1947
 21
51.562
 31
0.0
  0
LINE
  8
0
 62
     0
 10
31.1947
 20
51.562
 30
0.0
 11
31.1947
 21
45.762
 31
0.0
  0
LINE
  8
0
 62
     0
 10
31.1947
 20
45.762
 30
0.0
 11
30.3954
 21
45.762
 31
0.0
  0
LINE
  8
0
 62
     0
 10
30.3954
 20
45.762
 30
0.0
 11
30.3954
 21
42.6628
 31
0.0
  0
LINE
  8
0
 62
     0
 10
30.3954
 20
42.6628
 30
0.0
 11
31.1947
 21
42.6628
 31
0.0
  0
LINE
  8
0
 62
     0
 10
31.1947
 20
42.6628
 30
0.0
 11
31.1947
 21
41.6624
 31
0.0
  0
LINE
  8
0
 62
     0
 10
31.1947
 20
41.6624
 30
0.0
 11
45.194
 21
41.6624
 31
0.0
  0
LINE
  8
0
 62
     0
 10
45.194
 20
41.6624
 30
0.0
 11
45.194
 21
42.6628
 31
0.0
  0
LINE
  8
0
 62
     0
 10
45.194
 20
42.6628
 30
0.0
 11
45.9948
 21
42.6628
 31
0.0
  0
LINE
  8
0
 62
     0
 10
45.9948
 20
42.6628
 30
0.0
 11
45.9948
 21
45.762
 31
0.0
  0
LINE
  8
0
 62
     0
 10
45.9948
 20
45.762
 30
0.0
 11
45.194
 21
45.762
 31
0.0
  0
LINE
  8
0
 62
     0
 10
45.194
 20
45.762
 30
0.0
 11
45.194
 21
51.562
 31
0.0
  0
LINE
  8
0
 62
     0
 10
45.194
 20
51.562
 30
0.0
 11
45.9948
 21
51.562
 31
0.0
  0
LINE
  8
0
 62
     0
 10
45.9948
 20
51.562
 30
0.0
 11
45.9948
 21
54.6626
 31
0.0
  0
LINE
  8
0
 62
     0
 10
45.9948
 20
54.6626
 30
0.0
 11
45.194
 21
54.6626
 31
0.0
  0
LINE
  8
0
 62
     0
 10
45.194
 20
54.6626
 30
0.0
 11
45.194
 21
55.6616
 31
0.0
  0
LINE
  8
0
 62
     0
 10
45.194
 20
55.6616
 30
0.0
 11
31.1947
 21
55.6616
 31
0.0
  0
LINE
  8
0
 62
     0
 10
50.2447
 20
65.1866
 30
0.0
 11
50.2447
 21
64.1876
 31
0.0
  0
LINE
  8
0
 62
     0
 10
50.2447
 20
64.1876
 30
0.0
 11
49.4453
 21
64.1876
 31
0.0
  0
LINE
  8
0
 62
     0
 10
49.4453
 20
64.1876
 30
0.0
 11
49.4453
 21
61.087
 31
0.0
  0
LINE
  8
0
 62
     0
 10
49.4453
 20
61.087
 30
0.0
 11
50.2447
 21
61.087
 31
0.0
  0
LINE
  8
0
 62
     0
 10
50.2447
 20
61.087
 30
0.0
 11
50.2447
 21
55.287
 31
0.0
  0
LINE
  8
0
 62
     0
 10
50.2447
 20
55.287
 30
0.0
 11
49.4453
 21
55.287
 31
0.0
  0
LINE
  8
0
 62
     0
 10
49.4453
 20
55.287
 30
0.0
 11
49.4453
 21
52.1878
 31
0.0
  0
LINE
  8
0
 62
     0
 10
49.4453
 20
52.1878
 30
0.0
 11
50.2447
 21
52.1878
 31
0.0
  0
LINE
  8
0
 62
     0
 10
50.2447
 20
52.1878
 30
0.0
 11
50.2447
 21
51.1874
 31
0.0
  0
LINE
  8
0
 62
     0
 10
50.2447
 20
51.1874
 30
0.0
 11
64.244
 21
51.1874
 31
0.0
  0
LINE
  8
0
 62
     0
 10
64.244
 20
51.1874
 30
0.0
 11
64.244
 21
52.1878
 31
0.0
  0
LINE
  8
0
 62
     0
 10
64.244
 20
52.1878
 30
0.0
 11
65.0448
 21
52.1878
 31
0.0
  0
LINE
  8
0
 62
     0
 10
65.0448
 20
52.1878
 30
0.0
 11
65.0448
 21
55.287
 31
0.0
  0
LINE
  8
0
 62
     0
 10
65.0448
 20
55.287
 30
0.0
 11
64.244
 21
55.287
 31
0.0
  0
LINE
  8
0
 62
     0
 10
64.244
 20
55.287
 30
0.0
 11
64.244
 21
61.087
 31
0.0
  0
LINE
  8
0
 62
     0
 10
64.244
 20
61.087
 30
0.0
 11
65.0448
 21
61.087
 31
0.0
  0
LINE
  8
0
 62
     0
 10
65.0448
 20
61.087
 30
0.0
 11
65.0448
 21
64.1876
 31
0.0
  0
LINE
  8
0
 62
     0
 10
65.0448
 20
64.1876
 30
0.0
 11
64.244
 21
64.1876
 31
0.0
  0
LINE
  8
0
 62
     0
 10
64.244
 20
64.1876
 30
0.0
 11
64.244
 21
65.1866
 31
0.0
  0
LINE
  8
0
 62
     0
 10
64.244
 20
65.1866
 30
0.0
 11
50.2447
 21
65.1866
 31
0.0
  0
LINE
  8
0
 62
     0
 10
88.3447
 20
65.1866
 30
0.0
 11
88.3447
 21
64.1876
 31
0.0
  0
LINE
  8
0
 62
     0
 10
88.3447
 20
64.1876
 30
0.0
 11
87.5453
 21
64.1876
 31
0.0
  0
LINE
  8
0
 62
     0
 10
87.5453
 20
64.1876
 30
0.0
 11
87.5453
 21
61.087
 31
0.0
  0
LINE
  8
0
 62
     0
 10
87.5453
 20
61.087
 30
0.0
 11
88.3447
 21
61.087
 31
0.0
  0
LINE
  8
0
 62
     0
 10
88.3447
 20
61.087
 30
0.0
 11
88.3447
 21
55.287
 31
0.0
  0
LINE
  8
0
 62
     0
 10
88.3447
 20
55.287
 30
0.0
 11
87.5453
 21
55.287
 31
0.0
  0
LINE
  8
0
 62
     0
 10
87.5453
 20
55.287
 30
0.0
 11
87.5453
 21
52.1878
 31
0.0
  0
LINE
  8
0
 62
     0
 10
87.5453
 20
52.1878
 30
0.0
 11
88.3447
 21
52.1878
 31
0.0
  0
LINE
  8
0
 62
     0
 10
88.3447
 20
52.1878
 30
0.0
 11
88.3447
 21
51.1874
 31
0.0
  0
LINE
  8
0
 62
     0
 10
88.3447
 20
51.1874
 30
0.0
 11
102.344
 21
51.1874
 31
0.0
  0
LINE
  8
0
 62
     0
 10
102.344
 20
51.1874
 30
0.0
 11
102.344
 21
52.1878
 31
0.0
  0
LINE
  8
0
 62
     0
 10
102.344
 20
52.1878
 30
0.0
 11
103.145
 21
52.1878
 31
0.0
  0
LINE
  8
0
 62
     0
 10
103.145
 20
52.1878
 30
0.0
 11
103.145
 21
55.287
 31
0.0
  0
LINE
  8
0
 62
     0
 10
103.145
 20
55.287
 30
0.0
 11
102.344
 21
55.287
 31
0.0
  0
LINE
  8
0
 62
     0
 10
102.344
 20
55.287
 30
0.0
 11
102.344
 21
61.087
 31
0.0
  0
LINE
  8
0
 62
     0
 10
102.344
 20
61.087
 30
0.0
 11
103.145
 21
61.087
 31
0.0
  0
LINE
  8
0
 62
     0
 10
103.145
 20
61.087
 30
0.0
 11
103.145
 21
64.1876
 31
0.0
  0
LINE
  8
0
 62
     0
 10
103.145
 20
64.1876
 30
0.0
 11
102.344
 21
64.1876
 31
0.0
  0
LINE
  8
0
 62
     0
 10
102.344
 20
64.1876
 30
0.0
 11
102.344
 21
65.1866
 31
0.0
  0
LINE
  8
0
 62
     0
 10
102.344
 20
65.1866
 30
0.0
 11
88.3447
 21
65.1866
 31
0.0
  0
LINE
  8
0
 62
     0
 10
107.395
 20
65.1866
 30
0.0
 11
107.395
 21
64.1876
 31
0.0
  0
LINE
  8
0
 62
     0
 10
107.395
 20
64.1876
 30
0.0
 11
106.595
 21
64.1876
 31
0.0
  0
LINE
  8
0
 62
     0
 10
106.595
 20
64.1876
 30
0.0
 11
106.595
 21
61.087
 31
0.0
  0
LINE
  8
0
 62
     0
 10
106.595
 20
61.087
 30
0.0
 11
107.395
 21
61.087
 31
0.0
  0
LINE
  8
0
 62
     0
 10
107.395
 20
61.087
 30
0.0
 11
107.395
 21
55.287
 31
0.0
  0
LINE
  8
0
 62
     0
 10
107.395
 20
55.287
 30
0.0
 11
106.595
 21
55.287
 31
0.0
  0
LINE
  8
0
 62
     0
 10
106.595
 20
55.287
 30
0.0
 11
106.595
 21
52.1878
 31
0.0
  0
LINE
  8
0
 62
     0
 10
106.595
 20
52.1878
 30
0.0
 11
107.395
 21
52.1878
 31
0.0
  0
LINE
  8
0
 62
     0
 10
107.395
 20
52.1878
 30
0.0
 11
107.395
 21
51.1874
 31
0.0
  0
LINE
  8
0
 62
     0
 10
107.395
 20
51.1874
 30
0.0
 11
121.394
 21
51.1874
 31
0.0
  0
LINE
  8
0
 62
     0
 10
121.394
 20
51.1874
 30
0.0
 11
121.394
 21
52.1878
 31
0.0
  0
LINE
  8
0
 62
     0
 10
121.394
 20
52.1878
 30
0.0
 11
122.195
 21
52.1878
 31
0.0
  0
LINE
  8
0
 62
     0
 10
122.195
 20
52.1878
 30
0.0
 11
122.195
 21
55.287
 31
0.0
  0
LINE
  8
0
 62
     0
 10
122.195
 20
55.287
 30
0.0
 11
121.394
 21
55.287
 31
0.0
  0
LINE
  8
0
 62
     0
 10
121.394
 20
55.287
 30
0.0
 11
121.394
 21
61.087
 31
0.0
  0
LINE
  8
0
 62
     0
 10
121.394
 20
61.087
 30
0.0
 11
122.195
 21
61.087
 31
0.0
  0
LINE
  8
0
 62
     0
 10
122.195
 20
61.087
 30
0.0
 11
122.195
 21
64.1876
 31
0.0
  0
LINE
  8
0
 62
     0
 10
122.195
 20
64.1876
 30
0.0
 11
121.394
 21
64.1876
 31
0.0
  0
LINE
  8
0
 62
     0
 10
121.394
 20
64.1876
 30
0.0
 11
121.394
 21
65.1866
 31
0.0
  0
LINE
  8
0
 62
     0
 10
121.394
 20
65.1866
 30
0.0
 11
107.395
 21
65.1866
 31
0.0
  0
LINE
  8
0
 62
     0
 10
69.2947
 20
69.9491
 30
0.0
 11
69.2947
 21
68.9487
 31
0.0
  0
LINE
  8
0
 62
     0
 10
69.2947
 20
68.9487
 30
0.0
 11
68.4953
 21
68.9487
 31
0.0
  0
LINE
  8
0
 62
     0
 10
68.4953
 20
68.9487
 30
0.0
 11
68.4953
 21
65.8495
 31
0.0
  0
LINE
  8
0
 62
     0
 10
68.4953
 20
65.8495
 30
0.0
 11
69.2947
 21
65.8495
 31
0.0
  0
LINE
  8
0
 62
     0
 10
69.2947
 20
65.8495
 30
0.0
 11
69.2947
 21
60.0495
 31
0.0
  0
LINE
  8
0
 62
     0
 10
69.2947
 20
60.0495
 30
0.0
 11
68.4953
 21
60.0495
 31
0.0
  0
LINE
  8
0
 62
     0
 10
68.4953
 20
60.0495
 30
0.0
 11
68.4953
 21
56.9489
 31
0.0
  0
LINE
  8
0
 62
     0
 10
68.4953
 20
56.9489
 30
0.0
 11
69.2947
 21
56.9489
 31
0.0
  0
LINE
  8
0
 62
     0
 10
69.2947
 20
56.9489
 30
0.0
 11
69.2947
 21
55.9499
 31
0.0
  0
LINE
  8
0
 62
     0
 10
69.2947
 20
55.9499
 30
0.0
 11
83.294
 21
55.9499
 31
0.0
  0
LINE
  8
0
 62
     0
 10
83.294
 20
55.9499
 30
0.0
 11
83.294
 21
56.9489
 31
0.0
  0
LINE
  8
0
 62
     0
 10
83.294
 20
56.9489
 30
0.0
 11
84.0948
 21
56.9489
 31
0.0
  0
LINE
  8
0
 62
     0
 10
84.0948
 20
56.9489
 30
0.0
 11
84.0948
 21
60.0495
 31
0.0
  0
LINE
  8
0
 62
     0
 10
84.0948
 20
60.0495
 30
0.0
 11
83.294
 21
60.0495
 31
0.0
  0
LINE
  8
0
 62
     0
 10
83.294
 20
60.0495
 30
0.0
 11
83.294
 21
65.8495
 31
0.0
  0
LINE
  8
0
 62
     0
 10
83.294
 20
65.8495
 30
0.0
 11
84.0948
 21
65.8495
 31
0.0
  0
LINE
  8
0
 62
     0
 10
84.0948
 20
65.8495
 30
0.0
 11
84.0948
 21
68.9487
 31
0.0
  0
LINE
  8
0
 62
     0
 10
84.0948
 20
68.9487
 30
0.0
 11
83.294
 21
68.9487
 31
0.0
  0
LINE
  8
0
 62
     0
 10
83.294
 20
68.9487
 30
0.0
 11
83.294
 21
69.9491
 31
0.0
  0
LINE
  8
0
 62
     0
 10
83.294
 20
69.9491
 30
0.0
 11
69.2947
 21
69.9491
 31
0.0
  0
LINE
  8
0
 62
     0
 10
131.207
 20
69.9491
 30
0.0
 11
131.207
 21
68.9487
 31
0.0
  0
LINE
  8
0
 62
     0
 10
131.207
 20
68.9487
 30
0.0
 11
130.406
 21
68.9487
 31
0.0
  0
LINE
  8
0
 62
     0
 10
130.406
 20
68.9487
 30
0.0
 11
130.406
 21
65.8495
 31
0.0
  0
LINE
  8
0
 62
     0
 10
130.406
 20
65.8495
 30
0.0
 11
131.207
 21
65.8495
 31
0.0
  0
LINE
  8
0
 62
     0
 10
131.207
 20
65.8495
 30
0.0
 11
131.207
 21
60.0495
 31
0.0
  0
LINE
  8
0
 62
     0
 10
131.207
 20
60.0495
 30
0.0
 11
130.406
 21
60.0495
 31
0.0
  0
LINE
  8
0
 62
     0
 10
130.406
 20
60.0495
 30
0.0
 11
130.406
 21
56.9489
 31
0.0
  0
LINE
  8
0
 62
     0
 10
130.406
 20
56.9489
 30
0.0
 11
131.207
 21
56.9489
 31
0.0
  0
LINE
  8
0
 62
     0
 10
131.207
 20
56.9489
 30
0.0
 11
131.207
 21
55.9499
 31
0.0
  0
LINE
  8
0
 62
     0
 10
131.207
 20
55.9499
 30
0.0
 11
145.207
 21
55.9499
 31
0.0
  0
LINE
  8
0
 62
     0
 10
145.207
 20
55.9499
 30
0.0
 11
145.207
 21
56.9489
 31
0.0
  0
LINE
  8
0
 62
     0
 10
145.207
 20
56.9489
 30
0.0
 11
146.007
 21
56.9489
 31
0.0
  0
LINE
  8
0
 62
     0
 10
146.007
 20
56.9489
 30
0.0
 11
146.007
 21
60.0495
 31
0.0
  0
LINE
  8
0
 62
     0
 10
146.007
 20
60.0495
 30
0.0
 11
145.207
 21
60.0495
 31
0.0
  0
LINE
  8
0
 62
     0
 10
145.207
 20
60.0495
 30
0.0
 11
145.207
 21
65.8495
 31
0.0
  0
LINE
  8
0
 62
     0
 10
145.207
 20
65.8495
 30
0.0
 11
146.007
 21
65.8495
 31
0.0
  0
LINE
  8
0
 62
     0
 10
146.007
 20
65.8495
 30
0.0
 11
146.007
 21
68.9487
 31
0.0
  0
LINE
  8
0
 62
     0
 10
146.007
 20
68.9487
 30
0.0
 11
145.207
 21
68.9487
 31
0.0
  0
LINE
  8
0
 62
     0
 10
145.207
 20
68.9487
 30
0.0
 11
145.207
 21
69.9491
 31
0.0
  0
LINE
  8
0
 62
     0
 10
145.207
 20
69.9491
 30
0.0
 11
131.207
 21
69.9491
 31
0.0
  0
LINE
  8
0
 62
     0
 10
7.38216
 20
74.7116
 30
0.0
 11
7.38216
 21
73.7126
 31
0.0
  0
LINE
  8
0
 62
     0
 10
7.38216
 20
73.7126
 30
0.0
 11
6.58153
 21
73.7126
 31
0.0
  0
LINE
  8
0
 62
     0
 10
6.58153
 20
73.7126
 30
0.0
 11
6.58153
 21
70.612
 31
0.0
  0
LINE
  8
0
 62
     0
 10
6.58153
 20
70.612
 30
0.0
 11
7.38216
 21
70.612
 31
0.0
  0
LINE
  8
0
 62
     0
 10
7.38216
 20
70.612
 30
0.0
 11
7.38216
 21
64.812
 31
0.0
  0
LINE
  8
0
 62
     0
 10
7.38216
 20
64.812
 30
0.0
 11
6.58153
 21
64.812
 31
0.0
  0
LINE
  8
0
 62
     0
 10
6.58153
 20
64.812
 30
0.0
 11
6.58153
 21
61.7128
 31
0.0
  0
LINE
  8
0
 62
     0
 10
6.58153
 20
61.7128
 30
0.0
 11
7.38216
 21
61.7128
 31
0.0
  0
LINE
  8
0
 62
     0
 10
7.38216
 20
61.7128
 30
0.0
 11
7.38216
 21
60.7124
 31
0.0
  0
LINE
  8
0
 62
     0
 10
7.38216
 20
60.7124
 30
0.0
 11
21.3817
 21
60.7124
 31
0.0
  0
LINE
  8
0
 62
     0
 10
21.3817
 20
60.7124
 30
0.0
 11
21.3817
 21
61.7128
 31
0.0
  0
LINE
  8
0
 62
     0
 10
21.3817
 20
61.7128
 30
0.0
 11
22.1823
 21
61.7128
 31
0.0
  0
LINE
  8
0
 62
     0
 10
22.1823
 20
61.7128
 30
0.0
 11
22.1823
 21
64.812
 31
0.0
  0
LINE
  8
0
 62
     0
 10
22.1823
 20
64.812
 30
0.0
 11
21.3817
 21
64.812
 31
0.0
  0
LINE
  8
0
 62
     0
 10
21.3817
 20
64.812
 30
0.0
 11
21.3817
 21
70.612
 31
0.0
  0
LINE
  8
0
 62
     0
 10
21.3817
 20
70.612
 30
0.0
 11
22.1823
 21
70.612
 31
0.0
  0
LINE
  8
0
 62
     0
 10
22.1823
 20
70.612
 30
0.0
 11
22.1823
 21
73.7126
 31
0.0
  0
LINE
  8
0
 62
     0
 10
22.1823
 20
73.7126
 30
0.0
 11
21.3817
 21
73.7126
 31
0.0
  0
LINE
  8
0
 62
     0
 10
21.3817
 20
73.7126
 30
0.0
 11
21.3817
 21
74.7116
 31
0.0
  0
LINE
  8
0
 62
     0
 10
21.3817
 20
74.7116
 30
0.0
 11
7.38216
 21
74.7116
 31
0.0
  0
LINE
  8
0
 62
     0
 10
31.1947
 20
74.7116
 30
0.0
 11
31.1947
 21
73.7126
 31
0.0
  0
LINE
  8
0
 62
     0
 10
31.1947
 20
73.7126
 30
0.0
 11
30.3954
 21
73.7126
 31
0.0
  0
LINE
  8
0
 62
     0
 10
30.3954
 20
73.7126
 30
0.0
 11
30.3954
 21
70.612
 31
0.0
  0
LINE
  8
0
 62
     0
 10
30.3954
 20
70.612
 30
0.0
 11
31.1947
 21
70.612
 31
0.0
  0
LINE
  8
0
 62
     0
 10
31.1947
 20
70.612
 30
0.0
 11
31.1947
 21
64.812
 31
0.0
  0
LINE
  8
0
 62
     0
 10
31.1947
 20
64.812
 30
0.0
 11
30.3954
 21
64.812
 31
0.0
  0
LINE
  8
0
 62
     0
 10
30.3954
 20
64.812
 30
0.0
 11
30.3954
 21
61.7128
 31
0.0
  0
LINE
  8
0
 62
     0
 10
30.3954
 20
61.7128
 30
0.0
 11
31.1947
 21
61.7128
 31
0.0
  0
LINE
  8
0
 62
     0
 10
31.1947
 20
61.7128
 30
0.0
 11
31.1947
 21
60.7124
 31
0.0
  0
LINE
  8
0
 62
     0
 10
31.1947
 20
60.7124
 30
0.0
 11
45.194
 21
60.7124
 31
0.0
  0
LINE
  8
0
 62
     0
 10
45.194
 20
60.7124
 30
0.0
 11
45.194
 21
61.7128
 31
0.0
  0
LINE
  8
0
 62
     0
 10
45.194
 20
61.7128
 30
0.0
 11
45.9948
 21
61.7128
 31
0.0
  0
LINE
  8
0
 62
     0
 10
45.9948
 20
61.7128
 30
0.0
 11
45.9948
 21
64.812
 31
0.0
  0
LINE
  8
0
 62
     0
 10
45.9948
 20
64.812
 30
0.0
 11
45.194
 21
64.812
 31
0.0
  0
LINE
  8
0
 62
     0
 10
45.194
 20
64.812
 30
0.0
 11
45.194
 21
70.612
 31
0.0
  0
LINE
  8
0
 62
     0
 10
45.194
 20
70.612
 30
0.0
 11
45.9948
 21
70.612
 31
0.0
  0
LINE
  8
0
 62
     0
 10
45.9948
 20
70.612
 30
0.0
 11
45.9948
 21
73.7126
 31
0.0
  0
LINE
  8
0
 62
     0
 10
45.9948
 20
73.7126
 30
0.0
 11
45.194
 21
73.7126
 31
0.0
  0
LINE
  8
0
 62
     0
 10
45.194
 20
73.7126
 30
0.0
 11
45.194
 21
74.7116
 31
0.0
  0
LINE
  8
0
 62
     0
 10
45.194
 20
74.7116
 30
0.0
 11
31.1947
 21
74.7116
 31
0.0
  0
LINE
  8
0
 62
     0
 10
50.2447
 20
84.2366
 30
0.0
 11
50.2447
 21
83.2376
 31
0.0
  0
LINE
  8
0
 62
     0
 10
50.2447
 20
83.2376
 30
0.0
 11
49.4453
 21
83.2376
 31
0.0
  0
LINE
  8
0
 62
     0
 10
49.4453
 20
83.2376
 30
0.0
 11
49.4453
 21
80.137
 31
0.0
  0
LINE
  8
0
 62
     0
 10
49.4453
 20
80.137
 30
0.0
 11
50.2447
 21
80.137
 31
0.0
  0
LINE
  8
0
 62
     0
 10
50.2447
 20
80.137
 30
0.0
 11
50.2447
 21
74.337
 31
0.0
  0
LINE
  8
0
 62
     0
 10
50.2447
 20
74.337
 30
0.0
 11
49.4453
 21
74.337
 31
0.0
  0
LINE
  8
0
 62
     0
 10
49.4453
 20
74.337
 30
0.0
 11
49.4453
 21
71.2378
 31
0.0
  0
LINE
  8
0
 62
     0
 10
49.4453
 20
71.2378
 30
0.0
 11
50.2447
 21
71.2378
 31
0.0
  0
LINE
  8
0
 62
     0
 10
50.2447
 20
71.2378
 30
0.0
 11
50.2447
 21
70.2374
 31
0.0
  0
LINE
  8
0
 62
     0
 10
50.2447
 20
70.2374
 30
0.0
 11
64.244
 21
70.2374
 31
0.0
  0
LINE
  8
0
 62
     0
 10
64.244
 20
70.2374
 30
0.0
 11
64.244
 21
71.2378
 31
0.0
  0
LINE
  8
0
 62
     0
 10
64.244
 20
71.2378
 30
0.0
 11
65.0448
 21
71.2378
 31
0.0
  0
LINE
  8
0
 62
     0
 10
65.0448
 20
71.2378
 30
0.0
 11
65.0448
 21
74.337
 31
0.0
  0
LINE
  8
0
 62
     0
 10
65.0448
 20
74.337
 30
0.0
 11
64.244
 21
74.337
 31
0.0
  0
LINE
  8
0
 62
     0
 10
64.244
 20
74.337
 30
0.0
 11
64.244
 21
80.137
 31
0.0
  0
LINE
  8
0
 62
     0
 10
64.244
 20
80.137
 30
0.0
 11
65.0448
 21
80.137
 31
0.0
  0
LINE
  8
0
 62
     0
 10
65.0448
 20
80.137
 30
0.0
 11
65.0448
 21
83.2376
 31
0.0
  0
LINE
  8
0
 62
     0
 10
65.0448
 20
83.2376
 30
0.0
 11
64.244
 21
83.2376
 31
0.0
  0
LINE
  8
0
 62
     0
 10
64.244
 20
83.2376
 30
0.0
 11
64.244
 21
84.2366
 31
0.0
  0
LINE
  8
0
 62
     0
 10
64.244
 20
84.2366
 30
0.0
 11
50.2447
 21
84.2366
 31
0.0
  0
LINE
  8
0
 62
     0
 10
88.3447
 20
84.2366
 30
0.0
 11
88.3447
 21
83.2376
 31
0.0
  0
LINE
  8
0
 62
     0
 10
88.3447
 20
83.2376
 30
0.0
 11
87.5453
 21
83.2376
 31
0.0
  0
LINE
  8
0
 62
     0
 10
87.5453
 20
83.2376
 30
0.0
 11
87.5453
 21
80.137
 31
0.0
  0
LINE
  8
0
 62
     0
 10
87.5453
 20
80.137
 30
0.0
 11
88.3447
 21
80.137
 31
0.0
  0
LINE
  8
0
 62
     0
 10
88.3447
 20
80.137
 30
0.0
 11
88.3447
 21
74.337
 31
0.0
  0
LINE
  8
0
 62
     0
 10
88.3447
 20
74.337
 30
0.0
 11
87.5453
 21
74.337
 31
0.0
  0
LINE
  8
0
 62
     0
 10
87.5453
 20
74.337
 30
0.0
 11
87.5453
 21
71.2378
 31
0.0
  0
LINE
  8
0
 62
     0
 10
87.5453
 20
71.2378
 30
0.0
 11
88.3447
 21
71.2378
 31
0.0
  0
LINE
  8
0
 62
     0
 10
88.3447
 20
71.2378
 30
0.0
 11
88.3447
 21
70.2374
 31
0.0
  0
LINE
  8
0
 62
     0
 10
88.3447
 20
70.2374
 30
0.0
 11
102.344
 21
70.2374
 31
0.0
  0
LINE
  8
0
 62
     0
 10
102.344
 20
70.2374
 30
0.0
 11
102.344
 21
71.2378
 31
0.0
  0
LINE
  8
0
 62
     0
 10
102.344
 20
71.2378
 30
0.0
 11
103.145
 21
71.2378
 31
0.0
  0
LINE
  8
0
 62
     0
 10
103.145
 20
71.2378
 30
0.0
 11
103.145
 21
74.337
 31
0.0
  0
LINE
  8
0
 62
     0
 10
103.145
 20
74.337
 30
0.0
 11
102.344
 21
74.337
 31
0.0
  0
LINE
  8
0
 62
     0
 10
102.344
 20
74.337
 30
0.0
 11
102.344
 21
80.137
 31
0.0
  0
LINE
  8
0
 62
     0
 10
102.344
 20
80.137
 30
0.0
 11
103.145
 21
80.137
 31
0.0
  0
LINE
  8
0
 62
     0
 10
103.145
 20
80.137
 30
0.0
 11
103.145
 21
83.2376
 31
0.0
  0
LINE
  8
0
 62
     0
 10
103.145
 20
83.2376
 30
0.0
 11
102.344
 21
83.2376
 31
0.0
  0
LINE
  8
0
 62
     0
 10
102.344
 20
83.2376
 30
0.0
 11
102.344
 21
84.2366
 31
0.0
  0
LINE
  8
0
 62
     0
 10
102.344
 20
84.2366
 30
0.0
 11
88.3447
 21
84.2366
 31
0.0
  0
LINE
  8
0
 62
     0
 10
107.395
 20
84.2366
 30
0.0
 11
107.395
 21
83.2376
 31
0.0
  0
LINE
  8
0
 62
     0
 10
107.395
 20
83.2376
 30
0.0
 11
106.595
 21
83.2376
 31
0.0
  0
LINE
  8
0
 62
     0
 10
106.595
 20
83.2376
 30
0.0
 11
106.595
 21
80.137
 31
0.0
  0
LINE
  8
0
 62
     0
 10
106.595
 20
80.137
 30
0.0
 11
107.395
 21
80.137
 31
0.0
  0
LINE
  8
0
 62
     0
 10
107.395
 20
80.137
 30
0.0
 11
107.395
 21
74.337
 31
0.0
  0
LINE
  8
0
 62
     0
 10
107.395
 20
74.337
 30
0.0
 11
106.595
 21
74.337
 31
0.0
  0
LINE
  8
0
 62
     0
 10
106.595
 20
74.337
 30
0.0
 11
106.595
 21
71.2378
 31
0.0
  0
LINE
  8
0
 62
     0
 10
106.595
 20
71.2378
 30
0.0
 11
107.395
 21
71.2378
 31
0.0
  0
LINE
  8
0
 62
     0
 10
107.395
 20
71.2378
 30
0.0
 11
107.395
 21
70.2374
 31
0.0
  0
LINE
  8
0
 62
     0
 10
107.395
 20
70.2374
 30
0.0
 11
121.394
 21
70.2374
 31
0.0
  0
LINE
  8
0
 62
     0
 10
121.394
 20
70.2374
 30
0.0
 11
121.394
 21
71.2378
 31
0.0
  0
LINE
  8
0
 62
     0
 10
121.394
 20
71.2378
 30
0.0
 11
122.195
 21
71.2378
 31
0.0
  0
LINE
  8
0
 62
     0
 10
122.195
 20
71.2378
 30
0.0
 11
122.195
 21
74.337
 31
0.0
  0
LINE
  8
0
 62
     0
 10
122.195
 20
74.337
 30
0.0
 11
121.394
 21
74.337
 31
0.0
  0
LINE
  8
0
 62
     0
 10
121.394
 20
74.337
 30
0.0
 11
121.394
 21
80.137
 31
0.0
  0
LINE
  8
0
 62
     0
 10
121.394
 20
80.137
 30
0.0
 11
122.195
 21
80.137
 31
0.0
  0
LINE
  8
0
 62
     0
 10
122.195
 20
80.137
 30
0.0
 11
122.195
 21
83.2376
 31
0.0
  0
LINE
  8
0
 62
     0
 10
122.195
 20
83.2376
 30
0.0
 11
121.394
 21
83.2376
 31
0.0
  0
LINE
  8
0
 62
     0
 10
121.394
 20
83.2376
 30
0.0
 11
121.394
 21
84.2366
 31
0.0
  0
LINE
  8
0
 62
     0
 10
121.394
 20
84.2366
 30
0.0
 11
107.395
 21
84.2366
 31
0.0
  0
LINE
  8
0
 62
     0
 10
69.2947
 20
88.9991
 30
0.0
 11
69.2947
 21
87.9987
 31
0.0
  0
LINE
  8
0
 62
     0
 10
69.2947
 20
87.9987
 30
0.0
 11
68.4953
 21
87.9987
 31
0.0
  0
LINE
  8
0
 62
     0
 10
68.4953
 20
87.9987
 30
0.0
 11
68.4953
 21
84.8995
 31
0.0
  0
LINE
  8
0
 62
     0
 10
68.4953
 20
84.8995
 30
0.0
 11
69.2947
 21
84.8995
 31
0.0
  0
LINE
  8
0
 62
     0
 10
69.2947
 20
84.8995
 30
0.0
 11
69.2947
 21
79.0995
 31
0.0
  0
LINE
  8
0
 62
     0
 10
69.2947
 20
79.0995
 30
0.0
 11
68.4953
 21
79.0995
 31
0.0
  0
LINE
  8
0
 62
     0
 10
68.4953
 20
79.0995
 30
0.0
 11
68.4953
 21
75.9989
 31
0.0
  0
LINE
  8
0
 62
     0
 10
68.4953
 20
75.9989
 30
0.0
 11
69.2947
 21
75.9989
 31
0.0
  0
LINE
  8
0
 62
     0
 10
69.2947
 20
75.9989
 30
0.0
 11
69.2947
 21
74.9999
 31
0.0
  0
LINE
  8
0
 62
     0
 10
69.2947
 20
74.9999
 30
0.0
 11
83.294
 21
74.9999
 31
0.0
  0
LINE
  8
0
 62
     0
 10
83.294
 20
74.9999
 30
0.0
 11
83.294
 21
75.9989
 31
0.0
  0
LINE
  8
0
 62
     0
 10
83.294
 20
75.9989
 30
0.0
 11
84.0948
 21
75.9989
 31
0.0
  0
LINE
  8
0
 62
     0
 10
84.0948
 20
75.9989
 30
0.0
 11
84.0948
 21
79.0995
 31
0.0
  0
LINE
  8
0
 62
     0
 10
84.0948
 20
79.0995
 30
0.0
 11
83.294
 21
79.0995
 31
0.0
  0
LINE
  8
0
 62
     0
 10
83.294
 20
79.0995
 30
0.0
 11
83.294
 21
84.8995
 31
0.0
  0
LINE
  8
0
 62
     0
 10
83.294
 20
84.8995
 30
0.0
 11
84.0948
 21
84.8995
 31
0.0
  0
LINE
  8
0
 62
     0
 10
84.0948
 20
84.8995
 30
0.0
 11
84.0948
 21
87.9987
 31
0.0
  0
LINE
  8
0
 62
     0
 10
84.0948
 20
87.9987
 30
0.0
 11
83.294
 21
87.9987
 31
0.0
  0
LINE
  8
0
 62
     0
 10
83.294
 20
87.9987
 30
0.0
 11
83.294
 21
88.9991
 31
0.0
  0
LINE
  8
0
 62
     0
 10
83.294
 20
88.9991
 30
0.0
 11
69.2947
 21
88.9991
 31
0.0
  0
LINE
  8
0
 62
     0
 10
131.207
 20
88.9991
 30
0.0
 11
131.207
 21
87.9987
 31
0.0
  0
LINE
  8
0
 62
     0
 10
131.207
 20
87.9987
 30
0.0
 11
130.406
 21
87.9987
 31
0.0
  0
LINE
  8
0
 62
     0
 10
130.406
 20
87.9987
 30
0.0
 11
130.406
 21
84.8995
 31
0.0
  0
LINE
  8
0
 62
     0
 10
130.406
 20
84.8995
 30
0.0
 11
131.207
 21
84.8995
 31
0.0
  0
LINE
  8
0
 62
     0
 10
131.207
 20
84.8995
 30
0.0
 11
131.207
 21
79.0995
 31
0.0
  0
LINE
  8
0
 62
     0
 10
131.207
 20
79.0995
 30
0.0
 11
130.406
 21
79.0995
 31
0.0
  0
LINE
  8
0
 62
     0
 10
130.406
 20
79.0995
 30
0.0
 11
130.406
 21
75.9989
 31
0.0
  0
LINE
  8
0
 62
     0
 10
130.406
 20
75.9989
 30
0.0
 11
131.207
 21
75.9989
 31
0.0
  0
LINE
  8
0
 62
     0
 10
131.207
 20
75.9989
 30
0.0
 11
131.207
 21
74.9999
 31
0.0
  0
LINE
  8
0
 62
     0
 10
131.207
 20
74.9999
 30
0.0
 11
145.207
 21
74.9999
 31
0.0
  0
LINE
  8
0
 62
     0
 10
145.207
 20
74.9999
 30
0.0
 11
145.207
 21
75.9989
 31
0.0
  0
LINE
  8
0
 62
     0
 10
145.207
 20
75.9989
 30
0.0
 11
146.007
 21
75.9989
 31
0.0
  0
LINE
  8
0
 62
     0
 10
146.007
 20
75.9989
 30
0.0
 11
146.007
 21
79.0995
 31
0.0
  0
LINE
  8
0
 62
     0
 10
146.007
 20
79.0995
 30
0.0
 11
145.207
 21
79.0995
 31
0.0
  0
LINE
  8
0
 62
     0
 10
145.207
 20
79.0995
 30
0.0
 11
145.207
 21
84.8995
 31
0.0
  0
LINE
  8
0
 62
     0
 10
145.207
 20
84.8995
 30
0.0
 11
146.007
 21
84.8995
 31
0.0
  0
LINE
  8
0
 62
     0
 10
146.007
 20
84.8995
 30
0.0
 11
146.007
 21
87.9987
 31
0.0
  0
LINE
  8
0
 62
     0
 10
146.007
 20
87.9987
 30
0.0
 11
145.207
 21
87.9987
 31
0.0
  0
LINE
  8
0
 62
     0
 10
145.207
 20
87.9987
 30
0.0
 11
145.207
 21
88.9991
 31
0.0
  0
LINE
  8
0
 62
     0
 10
145.207
 20
88.9991
 30
0.0
 11
131.207
 21
88.9991
 31
0.0
  0
LINE
  8
0
 62
     0
 10
7.38216
 20
93.7616
 30
0.0
 11
7.38216
 21
92.7626
 31
0.0
  0
LINE
  8
0
 62
     0
 10
7.38216
 20
92.7626
 30
0.0
 11
6.58153
 21
92.7626
 31
0.0
  0
LINE
  8
0
 62
     0
 10
6.58153
 20
92.7626
 30
0.0
 11
6.58153
 21
89.662
 31
0.0
  0
LINE
  8
0
 62
     0
 10
6.58153
 20
89.662
 30
0.0
 11
7.38216
 21
89.662
 31
0.0
  0
LINE
  8
0
 62
     0
 10
7.38216
 20
89.662
 30
0.0
 11
7.38216
 21
83.862
 31
0.0
  0
LINE
  8
0
 62
     0
 10
7.38216
 20
83.862
 30
0.0
 11
6.58153
 21
83.862
 31
0.0
  0
LINE
  8
0
 62
     0
 10
6.58153
 20
83.862
 30
0.0
 11
6.58153
 21
80.7628
 31
0.0
  0
LINE
  8
0
 62
     0
 10
6.58153
 20
80.7628
 30
0.0
 11
7.38216
 21
80.7628
 31
0.0
  0
LINE
  8
0
 62
     0
 10
7.38216
 20
80.7628
 30
0.0
 11
7.38216
 21
79.7624
 31
0.0
  0
LINE
  8
0
 62
     0
 10
7.38216
 20
79.7624
 30
0.0
 11
21.3817
 21
79.7624
 31
0.0
  0
LINE
  8
0
 62
     0
 10
21.3817
 20
79.7624
 30
0.0
 11
21.3817
 21
80.7628
 31
0.0
  0
LINE
  8
0
 62
     0
 10
21.3817
 20
80.7628
 30
0.0
 11
22.1823
 21
80.7628
 31
0.0
  0
LINE
  8
0
 62
     0
 10
22.1823
 20
80.7628
 30
0.0
 11
22.1823
 21
83.862
 31
0.0
  0
LINE
  8
0
 62
     0
 10
22.1823
 20
83.862
 30
0.0
 11
21.3817
 21
83.862
 31
0.0
  0
LINE
  8
0
 62
     0
 10
21.3817
 20
83.862
 30
0.0
 11
21.3817
 21
89.662
 31
0.0
  0
LINE
  8
0
 62
     0
 10
21.3817
 20
89.662
 30
0.0
 11
22.1823
 21
89.662
 31
0.0
  0
LINE
  8
0
 62
     0
 10
22.1823
 20
89.662
 30
0.0
 11
22.1823
 21
92.7626
 31
0.0
  0
LINE
  8
0
 62
     0
 10
22.1823
 20
92.7626
 30
0.0
 11
21.3817
 21
92.7626
 31
0.0
  0
LINE
  8
0
 62
     0
 10
21.3817
 20
92.7626
 30
0.0
 11
21.3817
 21
93.7616
 31
0.0
  0
LINE
  8
0
 62
     0
 10
21.3817
 20
93.7616
 30
0.0
 11
7.38216
 21
93.7616
 31
0.0
  0
LINE
  8
0
 62
     0
 10
31.1947
 20
93.7616
 30
0.0
 11
31.1947
 21
92.7626
 31
0.0
  0
LINE
  8
0
 62
     0
 10
31.1947
 20
92.7626
 30
0.0
 11
30.3954
 21
92.7626
 31
0.0
  0
LINE
  8
0
 62
     0
 10
30.3954
 20
92.7626
 30
0.0
 11
30.3954
 21
89.662
 31
0.0
  0
LINE
  8
0
 62
     0
 10
30.3954
 20
89.662
 30
0.0
 11
31.1947
 21
89.662
 31
0.0
  0
LINE
  8
0
 62
     0
 10
31.1947
 20
89.662
 30
0.0
 11
31.1947
 21
83.862
 31
0.0
  0
LINE
  8
0
 62
     0
 10
31.1947
 20
83.862
 30
0.0
 11
30.3954
 21
83.862
 31
0.0
  0
LINE
  8
0
 62
     0
 10
30.3954
 20
83.862
 30
0.0
 11
30.3954
 21
80.7628
 31
0.0
  0
LINE
  8
0
 62
     0
 10
30.3954
 20
80.7628
 30
0.0
 11
31.1947
 21
80.7628
 31
0.0
  0
LINE
  8
0
 62
     0
 10
31.1947
 20
80.7628
 30
0.0
 11
31.1947
 21
79.7624
 31
0.0
  0
LINE
  8
0
 62
     0
 10
31.1947
 20
79.7624
 30
0.0
 11
45.194
 21
79.7624
 31
0.0
  0
LINE
  8
0
 62
     0
 10
45.194
 20
79.7624
 30
0.0
 11
45.194
 21
80.7628
 31
0.0
  0
LINE
  8
0
 62
     0
 10
45.194
 20
80.7628
 30
0.0
 11
45.9948
 21
80.7628
 31
0.0
  0
LINE
  8
0
 62
     0
 10
45.9948
 20
80.7628
 30
0.0
 11
45.9948
 21
83.862
 31
0.0
  0
LINE
  8
0
 62
     0
 10
45.9948
 20
83.862
 30
0.0
 11
45.194
 21
83.862
 31
0.0
  0
LINE
  8
0
 62
     0
 10
45.194
 20
83.862
 30
0.0
 11
45.194
 21
89.662
 31
0.0
  0
LINE
  8
0
 62
     0
 10
45.194
 20
89.662
 30
0.0
 11
45.9948
 21
89.662
 31
0.0
  0
LINE
  8
0
 62
     0
 10
45.9948
 20
89.662
 30
0.0
 11
45.9948
 21
92.7626
 31
0.0
  0
LINE
  8
0
 62
     0
 10
45.9948
 20
92.7626
 30
0.0
 11
45.194
 21
92.7626
 31
0.0
  0
LINE
  8
0
 62
     0
 10
45.194
 20
92.7626
 30
0.0
 11
45.194
 21
93.7616
 31
0.0
  0
LINE
  8
0
 62
     0
 10
45.194
 20
93.7616
 30
0.0
 11
31.1947
 21
93.7616
 31
0.0
  0
LINE
  8
0
 62
     0
 10
50.2447
 20
103.287
 30
0.0
 11
50.2447
 21
102.288
 31
0.0
  0
LINE
  8
0
 62
     0
 10
50.2447
 20
102.288
 30
0.0
 11
49.4453
 21
102.288
 31
0.0
  0
LINE
  8
0
 62
     0
 10
49.4453
 20
102.288
 30
0.0
 11
49.4453
 21
99.187
 31
0.0
  0
LINE
  8
0
 62
     0
 10
49.4453
 20
99.187
 30
0.0
 11
50.2447
 21
99.187
 31
0.0
  0
LINE
  8
0
 62
     0
 10
50.2447
 20
99.187
 30
0.0
 11
50.2447
 21
93.387
 31
0.0
  0
LINE
  8
0
 62
     0
 10
50.2447
 20
93.387
 30
0.0
 11
49.4453
 21
93.387
 31
0.0
  0
LINE
  8
0
 62
     0
 10
49.4453
 20
93.387
 30
0.0
 11
49.4453
 21
90.2878
 31
0.0
  0
LINE
  8
0
 62
     0
 10
49.4453
 20
90.2878
 30
0.0
 11
50.2447
 21
90.2878
 31
0.0
  0
LINE
  8
0
 62
     0
 10
50.2447
 20
90.2878
 30
0.0
 11
50.2447
 21
89.2874
 31
0.0
  0
LINE
  8
0
 62
     0
 10
50.2447
 20
89.2874
 30
0.0
 11
64.244
 21
89.2874
 31
0.0
  0
LINE
  8
0
 62
     0
 10
64.244
 20
89.2874
 30
0.0
 11
64.244
 21
90.2878
 31
0.0
  0
LINE
  8
0
 62
     0
 10
64.244
 20
90.2878
 30
0.0
 11
65.0448
 21
90.2878
 31
0.0
  0
LINE
  8
0
 62
     0
 10
65.0448
 20
90.2878
 30
0.0
 11
65.0448
 21
93.387
 31
0.0
  0
LINE
  8
0
 62
     0
 10
65.0448
 20
93.387
 30
0.0
 11
64.244
 21
93.387
 31
0.0
  0
LINE
  8
0
 62
     0
 10
64.244
 20
93.387
 30
0.0
 11
64.244
 21
99.187
 31
0.0
  0
LINE
  8
0
 62
     0
 10
64.244
 20
99.187
 30
0.0
 11
65.0448
 21
99.187
 31
0.0
  0
LINE
  8
0
 62
     0
 10
65.0448
 20
99.187
 30
0.0
 11
65.0448
 21
102.288
 31
0.0
  0
LINE
  8
0
 62
     0
 10
65.0448
 20
102.288
 30
0.0
 11
64.244
 21
102.288
 31
0.0
  0
LINE
  8
0
 62
     0
 10
64.244
 20
102.288
 30
0.0
 11
64.244
 21
103.287
 31
0.0
  0
LINE
  8
0
 62
     0
 10
64.244
 20
103.287
 30
0.0
 11
50.2447
 21
103.287
 31
0.0
  0
LINE
  8
0
 62
     0
 10
88.3447
 20
103.287
 30
0.0
 11
88.3447
 21
102.288
 31
0.0
  0
LINE
  8
0
 62
     0
 10
88.3447
 20
102.288
 30
0.0
 11
87.5453
 21
102.288
 31
0.0
  0
LINE
  8
0
 62
     0
 10
87.5453
 20
102.288
 30
0.0
 11
87.5453
 21
99.187
 31
0.0
  0
LINE
  8
0
 62
     0
 10
87.5453
 20
99.187
 30
0.0
 11
88.3447
 21
99.187
 31
0.0
  0
LINE
  8
0
 62
     0
 10
88.3447
 20
99.187
 30
0.0
 11
88.3447
 21
93.387
 31
0.0
  0
LINE
  8
0
 62
     0
 10
88.3447
 20
93.387
 30
0.0
 11
87.5453
 21
93.387
 31
0.0
  0
LINE
  8
0
 62
     0
 10
87.5453
 20
93.387
 30
0.0
 11
87.5453
 21
90.2878
 31
0.0
  0
LINE
  8
0
 62
     0
 10
87.5453
 20
90.2878
 30
0.0
 11
88.3447
 21
90.2878
 31
0.0
  0
LINE
  8
0
 62
     0
 10
88.3447
 20
90.2878
 30
0.0
 11
88.3447
 21
89.2874
 31
0.0
  0
LINE
  8
0
 62
     0
 10
88.3447
 20
89.2874
 30
0.0
 11
102.344
 21
89.2874
 31
0.0
  0
LINE
  8
0
 62
     0
 10
102.344
 20
89.2874
 30
0.0
 11
102.344
 21
90.2878
 31
0.0
  0
LINE
  8
0
 62
     0
 10
102.344
 20
90.2878
 30
0.0
 11
103.145
 21
90.2878
 31
0.0
  0
LINE
  8
0
 62
     0
 10
103.145
 20
90.2878
 30
0.0
 11
103.145
 21
93.387
 31
0.0
  0
LINE
  8
0
 62
     0
 10
103.145
 20
93.387
 30
0.0
 11
102.344
 21
93.387
 31
0.0
  0
LINE
  8
0
 62
     0
 10
102.344
 20
93.387
 30
0.0
 11
102.344
 21
99.187
 31
0.0
  0
LINE
  8
0
 62
     0
 10
102.344
 20
99.187
 30
0.0
 11
103.145
 21
99.187
 31
0.0
  0
LINE
  8
0
 62
     0
 10
103.145
 20
99.187
 30
0.0
 11
103.145
 21
102.288
 31
0.0
  0
LINE
  8
0
 62
     0
 10
103.145
 20
102.288
 30
0.0
 11
102.344
 21
102.288
 31
0.0
  0
LINE
  8
0
 62
     0
 10
102.344
 20
102.288
 30
0.0
 11
102.344
 21
103.287
 31
0.0
  0
LINE
  8
0
 62
     0
 10
102.344
 20
103.287
 30
0.0
 11
88.3447
 21
103.287
 31
0.0
  0
LINE
  8
0
 62
     0
 10
107.395
 20
103.287
 30
0.0
 11
107.395
 21
102.288
 31
0.0
  0
LINE
  8
0
 62
     0
 10
107.395
 20
102.288
 30
0.0
 11
106.595
 21
102.288
 31
0.0
  0
LINE
  8
0
 62
     0
 10
106.595
 20
102.288
 30
0.0
 11
106.595
 21
99.187
 31
0.0
  0
LINE
  8
0
 62
     0
 10
106.595
 20
99.187
 30
0.0
 11
107.395
 21
99.187
 31
0.0
  0
LINE
  8
0
 62
     0
 10
107.395
 20
99.187
 30
0.0
 11
107.395
 21
93.387
 31
0.0
  0
LINE
  8
0
 62
     0
 10
107.395
 20
93.387
 30
0.0
 11
106.595
 21
93.387
 31
0.0
  0
LINE
  8
0
 62
     0
 10
106.595
 20
93.387
 30
0.0
 11
106.595
 21
90.2878
 31
0.0
  0
LINE
  8
0
 62
     0
 10
106.595
 20
90.2878
 30
0.0
 11
107.395
 21
90.2878
 31
0.0
  0
LINE
  8
0
 62
     0
 10
107.395
 20
90.2878
 30
0.0
 11
107.395
 21
89.2874
 31
0.0
  0
LINE
  8
0
 62
     0
 10
107.395
 20
89.2874
 30
0.0
 11
121.394
 21
89.2874
 31
0.0
  0
LINE
  8
0
 62
     0
 10
121.394
 20
89.2874
 30
0.0
 11
121.394
 21
90.2878
 31
0.0
  0
LINE
  8
0
 62
     0
 10
121.394
 20
90.2878
 30
0.0
 11
122.195
 21
90.2878
 31
0.0
  0
LINE
  8
0
 62
     0
 10
122.195
 20
90.2878
 30
0.0
 11
122.195
 21
93.387
 31
0.0
  0
LINE
  8
0
 62
     0
 10
122.195
 20
93.387
 30
0.0
 11
121.394
 21
93.387
 31
0.0
  0
LINE
  8
0
 62
     0
 10
121.394
 20
93.387
 30
0.0
 11
121.394
 21
99.187
 31
0.0
  0
LINE
  8
0
 62
     0
 10
121.394
 20
99.187
 30
0.0
 11
122.195
 21
99.187
 31
0.0
  0
LINE
  8
0
 62
     0
 10
122.195
 20
99.187
 30
0.0
 11
122.195
 21
102.288
 31
0.0
  0
LINE
  8
0
 62
     0
 10
122.195
 20
102.288
 30
0.0
 11
121.394
 21
102.288
 31
0.0
  0
LINE
  8
0
 62
     0
 10
121.394
 20
102.288
 30
0.0
 11
121.394
 21
103.287
 31
0.0
  0
LINE
  8
0
 62
     0
 10
121.394
 20
103.287
 30
0.0
 11
107.395
 21
103.287
 31
0.0
  0
LINE
  8
0
 62
     0
 10
69.2947
 20
108.049
 30
0.0
 11
69.2947
 21
107.049
 31
0.0
  0
LINE
  8
0
 62
     0
 10
69.2947
 20
107.049
 30
0.0
 11
68.4953
 21
107.049
 31
0.0
  0
LINE
  8
0
 62
     0
 10
68.4953
 20
107.049
 30
0.0
 11
68.4953
 21
103.95
 31
0.0
  0
LINE
  8
0
 62
     0
 10
68.4953
 20
103.95
 30
0.0
 11
69.2947
 21
103.95
 31
0.0
  0
LINE
  8
0
 62
     0
 10
69.2947
 20
103.95
 30
0.0
 11
69.2947
 21
98.1495
 31
0.0
  0
LINE
  8
0
 62
     0
 10
69.2947
 20
98.1495
 30
0.0
 11
68.4953
 21
98.1495
 31
0.0
  0
LINE
  8
0
 62
     0
 10
68.4953
 20
98.1495
 30
0.0
 11
68.4953
 21
95.0489
 31
0.0
  0
LINE
  8
0
 62
     0
 10
68.4953
 20
95.0489
 30
0.0
 11
69.2947
 21
95.0489
 31
0.0
  0
LINE
  8
0
 62
     0
 10
69.2947
 20
95.0489
 30
0.0
 11
69.2947
 21
94.0498
 31
0.0
  0
LINE
  8
0
 62
     0
 10
69.2947
 20
94.0498
 30
0.0
 11
83.294
 21
94.0498
 31
0.0
  0
LINE
  8
0
 62
     0
 10
83.294
 20
94.0498
 30
0.0
 11
83.294
 21
95.0489
 31
0.0
  0
LINE
  8
0
 62
     0
 10
83.294
 20
95.0489
 30
0.0
 11
84.0948
 21
95.0489
 31
0.0
  0
LINE
  8
0
 62
     0
 10
84.0948
 20
95.0489
 30
0.0
 11
84.0948
 21
98.1495
 31
0.0
  0
LINE
  8
0
 62
     0
 10
84.0948
 20
98.1495
 30
0.0
 11
83.294
 21
98.1495
 31
0.0
  0
LINE
  8
0
 62
     0
 10
83.294
 20
98.1495
 30
0.0
 11
83.294
 21
103.95
 31
0.0
  0
LINE
  8
0
 62
     0
 10
83.294
 20
103.95
 30
0.0
 11
84.0948
 21
103.95
 31
0.0
  0
LINE
  8
0
 62
     0
 10
84.0948
 20
103.95
 30
0.0
 11
84.0948
 21
107.049
 31
0.0
  0
LINE
  8
0
 62
     0
 10
84.0948
 20
107.049
 30
0.0
 11
83.294
 21
107.049
 31
0.0
  0
LINE
  8
0
 62
     0
 10
83.294
 20
107.049
 30
0.0
 11
83.294
 21
108.049
 31
0.0
  0
LINE
  8
0
 62
     0
 10
83.294
 20
108.049
 30
0.0
 11
69.2947
 21
108.049
 31
0.0
  0
LINE
  8
0
 62
     0
 10
7.38216
 20
112.812
 30
0.0
 11
7.38216
 21
111.813
 31
0.0
  0
LINE
  8
0
 62
     0
 10
7.38216
 20
111.813
 30
0.0
 11
6.58153
 21
111.813
 31
0.0
  0
LINE
  8
0
 62
     0
 10
6.58153
 20
111.813
 30
0.0
 11
6.58153
 21
108.712
 31
0.0
  0
LINE
  8
0
 62
     0
 10
6.58153
 20
108.712
 30
0.0
 11
7.38216
 21
108.712
 31
0.0
  0
LINE
  8
0
 62
     0
 10
7.38216
 20
108.712
 30
0.0
 11
7.38216
 21
102.912
 31
0.0
  0
LINE
  8
0
 62
     0
 10
7.38216
 20
102.912
 30
0.0
 11
6.58153
 21
102.912
 31
0.0
  0
LINE
  8
0
 62
     0
 10
6.58153
 20
102.912
 30
0.0
 11
6.58153
 21
99.8128
 31
0.0
  0
LINE
  8
0
 62
     0
 10
6.58153
 20
99.8128
 30
0.0
 11
7.38216
 21
99.8128
 31
0.0
  0
LINE
  8
0
 62
     0
 10
7.38216
 20
99.8128
 30
0.0
 11
7.38216
 21
98.8123
 31
0.0
  0
LINE
  8
0
 62
     0
 10
7.38216
 20
98.8123
 30
0.0
 11
21.3817
 21
98.8123
 31
0.0
  0
LINE
  8
0
 62
     0
 10
21.3817
 20
98.8123
 30
0.0
 11
21.3817
 21
99.8128
 31
0.0
  0
LINE
  8
0
 62
     0
 10
21.3817
 20
99.8128
 30
0.0
 11
22.1823
 21
99.8128
 31
0.0
  0
LINE
  8
0
 62
     0
 10
22.1823
 20
99.8128
 30
0.0
 11
22.1823
 21
102.912
 31
0.0
  0
LINE
  8
0
 62
     0
 10
22.1823
 20
102.912
 30
0.0
 11
21.3817
 21
102.912
 31
0.0
  0
LINE
  8
0
 62
     0
 10
21.3817
 20
102.912
 30
0.0
 11
21.3817
 21
108.712
 31
0.0
  0
LINE
  8
0
 62
     0
 10
21.3817
 20
108.712
 30
0.0
 11
22.1823
 21
108.712
 31
0.0
  0
LINE
  8
0
 62
     0
 10
22.1823
 20
108.712
 30
0.0
 11
22.1823
 21
111.813
 31
0.0
  0
LINE
  8
0
 62
     0
 10
22.1823
 20
111.813
 30
0.0
 11
21.3817
 21
111.813
 31
0.0
  0
LINE
  8
0
 62
     0
 10
21.3817
 20
111.813
 30
0.0
 11
21.3817
 21
112.812
 31
0.0
  0
LINE
  8
0
 62
     0
 10
21.3817
 20
112.812
 30
0.0
 11
7.38216
 21
112.812
 31
0.0
  0
LINE
  8
0
 62
     0
 10
31.1947
 20
112.812
 30
0.0
 11
31.1947
 21
111.813
 31
0.0
  0
LINE
  8
0
 62
     0
 10
31.1947
 20
111.813
 30
0.0
 11
30.3954
 21
111.813
 31
0.0
  0
LINE
  8
0
 62
     0
 10
30.3954
 20
111.813
 30
0.0
 11
30.3954
 21
108.712
 31
0.0
  0
LINE
  8
0
 62
     0
 10
30.3954
 20
108.712
 30
0.0
 11
31.1947
 21
108.712
 31
0.0
  0
LINE
  8
0
 62
     0
 10
31.1947
 20
108.712
 30
0.0
 11
31.1947
 21
102.912
 31
0.0
  0
LINE
  8
0
 62
     0
 10
31.1947
 20
102.912
 30
0.0
 11
30.3954
 21
102.912
 31
0.0
  0
LINE
  8
0
 62
     0
 10
30.3954
 20
102.912
 30
0.0
 11
30.3954
 21
99.8128
 31
0.0
  0
LINE
  8
0
 62
     0
 10
30.3954
 20
99.8128
 30
0.0
 11
31.1947
 21
99.8128
 31
0.0
  0
LINE
  8
0
 62
     0
 10
31.1947
 20
99.8128
 30
0.0
 11
31.1947
 21
98.8123
 31
0.0
  0
LINE
  8
0
 62
     0
 10
31.1947
 20
98.8123
 30
0.0
 11
45.194
 21
98.8123
 31
0.0
  0
LINE
  8
0
 62
     0
 10
45.194
 20
98.8123
 30
0.0
 11
45.194
 21
99.8128
 31
0.0
  0
LINE
  8
0
 62
     0
 10
45.194
 20
99.8128
 30
0.0
 11
45.9948
 21
99.8128
 31
0.0
  0
LINE
  8
0
 62
     0
 10
45.9948
 20
99.8128
 30
0.0
 11
45.9948
 21
102.912
 31
0.0
  0
LINE
  8
0
 62
     0
 10
45.9948
 20
102.912
 30
0.0
 11
45.194
 21
102.912
 31
0.0
  0
LINE
  8
0
 62
     0
 10
45.194
 20
102.912
 30
0.0
 11
45.194
 21
108.712
 31
0.0
  0
LINE
  8
0
 62
     0
 10
45.194
 20
108.712
 30
0.0
 11
45.9948
 21
108.712
 31
0.0
  0
LINE
  8
0
 62
     0
 10
45.9948
 20
108.712
 30
0.0
 11
45.9948
 21
111.813
 31
0.0
  0
LINE
  8
0
 62
     0
 10
45.9948
 20
111.813
 30
0.0
 11
45.194
 21
111.813
 31
0.0
  0
LINE
  8
0
 62
     0
 10
45.194
 20
111.813
 30
0.0
 11
45.194
 21
112.812
 31
0.0
  0
LINE
  8
0
 62
     0
 10
45.194
 20
112.812
 30
0.0
 11
31.1947
 21
112.812
 31
0.0
  0
LINE
  8
0
 62
     0
 10
50.2447
 20
122.337
 30
0.0
 11
50.2447
 21
121.338
 31
0.0
  0
LINE
  8
0
 62
     0
 10
50.2447
 20
121.338
 30
0.0
 11
49.4453
 21
121.338
 31
0.0
  0
LINE
  8
0
 62
     0
 10
49.4453
 20
121.338
 30
0.0
 11
49.4453
 21
118.237
 31
0.0
  0
LINE
  8
0
 62
     0
 10
49.4453
 20
118.237
 30
0.0
 11
50.2447
 21
118.237
 31
0.0
  0
LINE
  8
0
 62
     0
 10
50.2447
 20
118.237
 30
0.0
 11
50.2447
 21
112.437
 31
0.0
  0
LINE
  8
0
 62
     0
 10
50.2447
 20
112.437
 30
0.0
 11
49.4453
 21
112.437
 31
0.0
  0
LINE
  8
0
 62
     0
 10
49.4453
 20
112.437
 30
0.0
 11
49.4453
 21
109.338
 31
0.0
  0
LINE
  8
0
 62
     0
 10
49.4453
 20
109.338
 30
0.0
 11
50.2447
 21
109.338
 31
0.0
  0
LINE
  8
0
 62
     0
 10
50.2447
 20
109.338
 30
0.0
 11
50.2447
 21
108.337
 31
0.0
  0
LINE
  8
0
 62
     0
 10
50.2447
 20
108.337
 30
0.0
 11
64.244
 21
108.337
 31
0.0
  0
LINE
  8
0
 62
     0
 10
64.244
 20
108.337
 30
0.0
 11
64.244
 21
109.338
 31
0.0
  0
LINE
  8
0
 62
     0
 10
64.244
 20
109.338
 30
0.0
 11
65.0448
 21
109.338
 31
0.0
  0
LINE
  8
0
 62
     0
 10
65.0448
 20
109.338
 30
0.0
 11
65.0448
 21
112.437
 31
0.0
  0
LINE
  8
0
 62
     0
 10
65.0448
 20
112.437
 30
0.0
 11
64.244
 21
112.437
 31
0.0
  0
LINE
  8
0
 62
     0
 10
64.244
 20
112.437
 30
0.0
 11
64.244
 21
118.237
 31
0.0
  0
LINE
  8
0
 62
     0
 10
64.244
 20
118.237
 30
0.0
 11
65.0448
 21
118.237
 31
0.0
  0
LINE
  8
0
 62
     0
 10
65.0448
 20
118.237
 30
0.0
 11
65.0448
 21
121.338
 31
0.0
  0
LINE
  8
0
 62
     0
 10
65.0448
 20
121.338
 30
0.0
 11
64.244
 21
121.338
 31
0.0
  0
LINE
  8
0
 62
     0
 10
64.244
 20
121.338
 30
0.0
 11
64.244
 21
122.337
 31
0.0
  0
LINE
  8
0
 62
     0
 10
64.244
 20
122.337
 30
0.0
 11
50.2447
 21
122.337
 31
0.0
  0
LINE
  8
0
 62
     0
 10
88.3447
 20
122.337
 30
0.0
 11
88.3447
 21
121.338
 31
0.0
  0
LINE
  8
0
 62
     0
 10
88.3447
 20
121.338
 30
0.0
 11
87.5453
 21
121.338
 31
0.0
  0
LINE
  8
0
 62
     0
 10
87.5453
 20
121.338
 30
0.0
 11
87.5453
 21
118.237
 31
0.0
  0
LINE
  8
0
 62
     0
 10
87.5453
 20
118.237
 30
0.0
 11
88.3447
 21
118.237
 31
0.0
  0
LINE
  8
0
 62
     0
 10
88.3447
 20
118.237
 30
0.0
 11
88.3447
 21
112.437
 31
0.0
  0
LINE
  8
0
 62
     0
 10
88.3447
 20
112.437
 30
0.0
 11
87.5453
 21
112.437
 31
0.0
  0
LINE
  8
0
 62
     0
 10
87.5453
 20
112.437
 30
0.0
 11
87.5453
 21
109.338
 31
0.0
  0
LINE
  8
0
 62
     0
 10
87.5453
 20
109.338
 30
0.0
 11
88.3447
 21
109.338
 31
0.0
  0
LINE
  8
0
 62
     0
 10
88.3447
 20
109.338
 30
0.0
 11
88.3447
 21
108.337
 31
0.0
  0
LINE
  8
0
 62
     0
 10
88.3447
 20
108.337
 30
0.0
 11
102.344
 21
108.337
 31
0.0
  0
LINE
  8
0
 62
     0
 10
102.344
 20
108.337
 30
0.0
 11
102.344
 21
109.338
 31
0.0
  0
LINE
  8
0
 62
     0
 10
102.344
 20
109.338
 30
0.0
 11
103.145
 21
109.338
 31
0.0
  0
LINE
  8
0
 62
     0
 10
103.145
 20
109.338
 30
0.0
 11
103.145
 21
112.437
 31
0.0
  0
LINE
  8
0
 62
     0
 10
103.145
 20
112.437
 30
0.0
 11
102.344
 21
112.437
 31
0.0
  0
LINE
  8
0
 62
     0
 10
102.344
 20
112.437
 30
0.0
 11
102.344
 21
118.237
 31
0.0
  0
LINE
  8
0
 62
     0
 10
102.344
 20
118.237
 30
0.0
 11
103.145
 21
118.237
 31
0.0
  0
LINE
  8
0
 62
     0
 10
103.145
 20
118.237
 30
0.0
 11
103.145
 21
121.338
 31
0.0
  0
LINE
  8
0
 62
     0
 10
103.145
 20
121.338
 30
0.0
 11
102.344
 21
121.338
 31
0.0
  0
LINE
  8
0
 62
     0
 10
102.344
 20
121.338
 30
0.0
 11
102.344
 21
122.337
 31
0.0
  0
LINE
  8
0
 62
     0
 10
102.344
 20
122.337
 30
0.0
 11
88.3447
 21
122.337
 31
0.0
  0
LINE
  8
0
 62
     0
 10
107.395
 20
122.337
 30
0.0
 11
107.395
 21
121.338
 31
0.0
  0
LINE
  8
0
 62
     0
 10
107.395
 20
121.338
 30
0.0
 11
106.595
 21
121.338
 31
0.0
  0
LINE
  8
0
 62
     0
 10
106.595
 20
121.338
 30
0.0
 11
106.595
 21
118.237
 31
0.0
  0
LINE
  8
0
 62
     0
 10
106.595
 20
118.237
 30
0.0
 11
107.395
 21
118.237
 31
0.0
  0
LINE
  8
0
 62
     0
 10
107.395
 20
118.237
 30
0.0
 11
107.395
 21
112.437
 31
0.0
  0
LINE
  8
0
 62
     0
 10
107.395
 20
112.437
 30
0.0
 11
106.595
 21
112.437
 31
0.0
  0
LINE
  8
0
 62
     0
 10
106.595
 20
112.437
 30
0.0
 11
106.595
 21
109.338
 31
0.0
  0
LINE
  8
0
 62
     0
 10
106.595
 20
109.338
 30
0.0
 11
107.395
 21
109.338
 31
0.0
  0
LINE
  8
0
 62
     0
 10
107.395
 20
109.338
 30
0.0
 11
107.395
 21
108.337
 31
0.0
  0
LINE
  8
0
 62
     0
 10
107.395
 20
108.337
 30
0.0
 11
121.394
 21
108.337
 31
0.0
  0
LINE
  8
0
 62
     0
 10
121.394
 20
108.337
 30
0.0
 11
121.394
 21
109.338
 31
0.0
  0
LINE
  8
0
 62
     0
 10
121.394
 20
109.338
 30
0.0
 11
122.195
 21
109.338
 31
0.0
  0
LINE
  8
0
 62
     0
 10
122.195
 20
109.338
 30
0.0
 11
122.195
 21
112.437
 31
0.0
  0
LINE
  8
0
 62
     0
 10
122.195
 20
112.437
 30
0.0
 11
121.394
 21
112.437
 31
0.0
  0
LINE
  8
0
 62
     0
 10
121.394
 20
112.437
 30
0.0
 11
121.394
 21
118.237
 31
0.0
  0
LINE
  8
0
 62
     0
 10
121.394
 20
118.237
 30
0.0
 11
122.195
 21
118.237
 31
0.0
  0
LINE
  8
0
 62
     0
 10
122.195
 20
118.237
 30
0.0
 11
122.195
 21
121.338
 31
0.0
  0
LINE
  8
0
 62
     0
 10
122.195
 20
121.338
 30
0.0
 11
121.394
 21
121.338
 31
0.0
  0
LINE
  8
0
 62
     0
 10
121.394
 20
121.338
 30
0.0
 11
121.394
 21
122.337
 31
0.0
  0
LINE
  8
0
 62
     0
 10
121.394
 20
122.337
 30
0.0
 11
107.395
 21
122.337
 31
0.0
  0
LINE
  8
0
 62
     0
 10
69.2947
 20
127.099
 30
0.0
 11
69.2947
 21
126.099
 31
0.0
  0
LINE
  8
0
 62
     0
 10
69.2947
 20
126.099
 30
0.0
 11
68.4953
 21
126.099
 31
0.0
  0
LINE
  8
0
 62
     0
 10
68.4953
 20
126.099
 30
0.0
 11
68.4953
 21
123
 31
0.0
  0
LINE
  8
0
 62
     0
 10
68.4953
 20
123
 30
0.0
 11
69.2947
 21
123
 31
0.0
  0
LINE
  8
0
 62
     0
 10
69.2947
 20
123
 30
0.0
 11
69.2947
 21
117.199
 31
0.0
  0
LINE
  8
0
 62
     0
 10
69.2947
 20
117.199
 30
0.0
 11
68.4953
 21
117.199
 31
0.0
  0
LINE
  8
0
 62
     0
 10
68.4953
 20
117.199
 30
0.0
 11
68.4953
 21
114.099
 31
0.0
  0
LINE
  8
0
 62
     0
 10
68.4953
 20
114.099
 30
0.0
 11
69.2947
 21
114.099
 31
0.0
  0
LINE
  8
0
 62
     0
 10
69.2947
 20
114.099
 30
0.0
 11
69.2947
 21
113.1
 31
0.0
  0
LINE
  8
0
 62
     0
 10
69.2947
 20
113.1
 30
0.0
 11
83.294
 21
113.1
 31
0.0
  0
LINE
  8
0
 62
     0
 10
83.294
 20
113.1
 30
0.0
 11
83.294
 21
114.099
 31
0.0
  0
LINE
  8
0
 62
     0
 10
83.294
 20
114.099
 30
0.0
 11
84.0948
 21
114.099
 31
0.0
  0
LINE
  8
0
 62
     0
 10
84.0948
 20
114.099
 30
0.0
 11
84.0948
 21
117.199
 31
0.0
  0
LINE
  8
0
 62
     0
 10
84.0948
 20
117.199
 30
0.0
 11
83.294
 21
117.199
 31
0.0
  0
LINE
  8
0
 62
     0
 10
83.294
 20
117.199
 30
0.0
 11
83.294
 21
123
 31
0.0
  0
LINE
  8
0
 62
     0
 10
83.294
 20
123
 30
0.0
 11
84.0948
 21
123
 31
0.0
  0
LINE
  8
0
 62
     0
 10
84.0948
 20
123
 30
0.0
 11
84.0948
 21
126.099
 31
0.0
  0
LINE
  8
0
 62
     0
 10
84.0948
 20
126.099
 30
0.0
 11
83.294
 21
126.099
 31
0.0
  0
LINE
  8
0
 62
     0
 10
83.294
 20
126.099
 30
0.0
 11
83.294
 21
127.099
 31
0.0
  0
LINE
  8
0
 62
     0
 10
83.294
 20
127.099
 30
0.0
 11
69.2947
 21
127.099
 31
0.0
  0
ENDSEC
  0
EOF
